<svg xmlns="http://www.w3.org/2000/svg" width="192" height="192" fill="#0d6efd" viewBox="0 0 256 256">
    <rect width="256" height="256" fill="none"></rect>
    <line x1="20" y1="250" x2="250" y2="250" fill="none" stroke="#0d6efd" stroke-linecap="round" stroke-linejoin="round" stroke-width="8"></line>
    <line x1="20" y1="20" x2="20" y2="250" fill="none" stroke="#0d6efd" stroke-linecap="round" stroke-linejoin="round" stroke-width="8"></line>
    <rect x="50" y="30" width="32" height="32" fill="none" stroke="#0d6efd" stroke-width="8" stroke-linecap="round" stroke-linejoin="round"></rect>
    <line x1="102" y1="35" x2="128" y2="35" fill="none" stroke="#0d6efd" stroke-linecap="round" stroke-linejoin="round" stroke-width="8"></line>
    <line x1="102" y1="55" x2="152" y2="55" fill="none" stroke="#0d6efd" stroke-linecap="round" stroke-linejoin="round" stroke-width="8"></line>
    <path d="M251,132C241,149,224,162,199,122Q143,42,85,150S49,244,20,178M20,20,20,250,250,250M20,135C75,104,108,148,138,185S209,256,250,166" fill="none" stroke="#0d6efd" stroke-linecap="round" stroke-linejoin="round" stroke-width="8"></path>
    <line x1="64" y1="190" x2="64" y2="250" fill="none" stroke="#0d6efd" stroke-dasharray="15" stroke-linecap="round" stroke-linejoin="round" stroke-width="5">
    </line>
    <line x1="92" y1="137" x2="92" y2="250" fill="none" stroke="#0d6efd" stroke-dasharray="15 " stroke-linecap="round" stroke-linejoin="round" stroke-width="5">
    </line>
    <line x1="151" y1="88" x2="151" y2="250" fill="none" stroke="#0d6efd" stroke-dasharray="15 " stroke-linecap="round" stroke-linejoin="round" stroke-width="5">
    </line>
    <line x1="192" y1="233" x2="192" y2="250" fill="none" stroke="#0d6efd" stroke-dasharray="15 " stroke-linecap="round" stroke-linejoin="round" stroke-width="5">
    </line>
    <line x1="230" y1="149" x2="230" y2="250" fill="none" stroke="#0d6efd" stroke-dasharray="15 " stroke-linecap="round" stroke-linejoin="round" stroke-width="5">
    </line>
</svg>