<?xml version="1.0" standalone="no"?>
<!DOCTYPE svg PUBLIC "-//W3C//DTD SVG 20010904//EN"
 "http://www.w3.org/TR/2001/REC-SVG-20010904/DTD/svg10.dtd">
<svg version="1.0" xmlns="http://www.w3.org/2000/svg"
 width="536.000000pt" height="467.000000pt" viewBox="0 0 536.000000 467.000000"
 preserveAspectRatio="xMidYMid meet">
<metadata>
Created by potrace 1.16, written by Peter Selinger 2001-2019
</metadata>
<g transform="translate(0.000000,467.000000) scale(0.100000,-0.100000)"
fill="#000000" stroke="none">
<path d="M3150 3984 c0 -18 -23 -44 -40 -44 -6 0 -22 -11 -36 -25 -14 -14 -30
-25 -35 -25 -6 0 -24 -13 -39 -30 -15 -16 -33 -30 -40 -30 -7 0 -25 -15 -41
-32 -36 -41 -36 -41 -76 -77 -18 -16 -33 -34 -33 -41 0 -7 -14 -25 -30 -40
-24 -22 -32 -40 -37 -79 -3 -28 -10 -51 -14 -51 -12 0 -12 -287 0 -292 4 -1
11 -92 15 -200 l7 -198 -26 0 c-14 0 -25 -4 -25 -10 0 -5 -7 -10 -16 -10 -8 0
-33 -19 -55 -42 -21 -24 -43 -47 -48 -52 -109 -104 -141 -139 -141 -149 0 -7
-9 -19 -20 -27 -11 -8 -20 -22 -20 -32 0 -10 -4 -18 -10 -18 -5 0 -10 -9 -10
-20 0 -11 -4 -20 -10 -20 -5 0 -10 -7 -10 -15 0 -8 -4 -15 -10 -15 -5 0 -10
-13 -10 -30 0 -16 -4 -30 -10 -30 -5 0 -10 -18 -10 -39 0 -22 -5 -41 -11 -43
-18 -6 -19 -310 -1 -315 7 -3 12 -21 12 -44 0 -21 5 -39 10 -39 6 0 10 -16 10
-35 0 -19 5 -35 10 -35 6 0 10 -13 10 -30 0 -16 5 -30 10 -30 6 0 10 -9 10
-20 0 -11 5 -20 10 -20 7 0 10 -163 10 -470 l0 -470 -60 0 -60 0 0 630 0 631
-25 24 c-24 25 -25 25 -225 25 -161 0 -204 -3 -216 -14 -12 -12 -14 -113 -14
-655 l0 -641 -60 0 -60 0 0 276 c0 225 -3 278 -14 290 -21 21 -431 21 -452 0
-11 -12 -14 -66 -14 -300 l0 -286 -65 0 -66 0 3 -57 3 -58 1255 -2 c690 -2
1260 1 1266 5 6 4 14 25 17 48 9 58 -14 84 -77 84 l-46 0 0 245 c0 238 1 245
20 245 12 0 20 7 20 16 0 8 6 22 14 30 17 16 56 19 56 4 0 -5 7 -10 15 -10 8
0 15 -9 15 -19 0 -11 9 -23 20 -26 11 -3 20 -14 20 -23 0 -10 9 -24 20 -32 11
-8 20 -21 20 -30 0 -9 9 -22 20 -30 11 -8 20 -20 20 -27 0 -7 63 -76 140 -153
77 -77 140 -145 140 -151 0 -14 76 -89 91 -89 6 0 24 -13 39 -30 15 -16 33
-30 38 -30 6 0 12 -6 15 -12 5 -17 230 -15 235 1 2 6 8 11 13 11 16 0 79 68
79 85 0 8 5 15 10 15 6 0 10 7 10 15 0 8 5 15 10 15 6 0 10 37 10 90 0 53 -4
90 -10 90 -5 0 -10 9 -10 20 0 11 -4 20 -10 20 -5 0 -10 7 -10 15 0 12 -77 96
-208 227 -4 4 -38 38 -75 75 -37 37 -71 71 -75 75 -4 4 -35 35 -70 68 l-63 60
70 0 c41 0 71 4 71 10 0 6 66 10 179 10 99 0 186 3 195 6 14 6 16 122 16 1216
0 1035 -2 1211 -14 1224 -12 12 -121 14 -715 14 -631 0 -701 -2 -701 -16z
m1310 -1214 l0 -1090 -260 0 -260 0 0 30 c0 17 5 30 10 30 6 0 10 23 10 50 0
28 5 50 10 50 6 0 10 28 10 65 0 37 4 65 10 65 6 0 10 35 10 85 0 50 -4 85
-10 85 -6 0 -10 27 -10 60 0 33 -4 60 -10 60 -5 0 -10 16 -10 35 0 19 -4 35
-10 35 -5 0 -10 14 -10 30 0 17 -4 30 -9 30 -5 0 -12 20 -15 45 -4 25 -11 45
-17 45 -5 0 -9 9 -9 20 0 11 -4 20 -10 20 -5 0 -10 5 -10 11 0 6 -13 24 -30
39 -16 15 -30 33 -30 39 0 7 -11 23 -25 37 -14 14 -25 29 -25 34 0 6 -9 10
-20 10 -10 0 -35 16 -54 35 -20 19 -42 35 -51 35 -8 0 -15 5 -15 10 0 6 -7 10
-15 10 -8 0 -15 5 -15 10 0 6 -9 10 -20 10 -11 0 -20 4 -20 9 0 6 -20 13 -45
17 -25 3 -45 10 -45 15 0 5 -13 9 -30 9 -16 0 -30 5 -30 10 0 6 -16 10 -35 10
-19 0 -35 5 -35 10 0 6 -18 10 -40 10 -22 0 -40 5 -40 10 0 6 -48 10 -125 10
-77 0 -125 -4 -125 -10 0 -6 -27 -10 -60 -10 l-60 0 0 285 0 285 55 0 c30 0
55 5 55 10 0 6 53 10 140 10 l140 0 0 140 c0 87 4 140 10 140 6 0 10 23 10 50
l0 50 585 0 585 0 0 -1090z m-1290 920 l0 -110 -112 0 c-109 0 -111 0 -90 19
12 10 22 24 22 31 0 6 14 25 30 40 17 15 30 33 30 40 0 21 74 88 98 89 22 1
22 -1 22 -109z m110 -890 c0 -5 16 -10 35 -10 19 0 35 -4 35 -10 0 -5 14 -10
30 -10 17 0 30 -4 30 -10 0 -5 9 -10 20 -10 11 0 20 -4 20 -10 0 -5 7 -10 15
-10 8 0 15 -4 15 -10 0 -5 9 -10 20 -10 11 0 20 -4 20 -10 0 -5 9 -10 20 -10
10 0 30 -11 44 -25 14 -14 28 -25 31 -25 3 0 30 -25 60 -55 31 -30 60 -55 65
-55 6 0 10 -9 10 -19 0 -11 7 -26 15 -35 8 -8 15 -21 15 -28 0 -8 9 -20 20
-28 11 -8 20 -25 20 -37 0 -13 5 -23 10 -23 6 0 10 -9 10 -20 0 -11 5 -20 10
-20 6 0 10 -16 10 -35 0 -19 5 -35 10 -35 6 0 10 -27 10 -60 0 -33 4 -60 10
-60 6 0 10 -35 10 -85 0 -50 -4 -85 -10 -85 -5 0 -10 -25 -10 -55 0 -30 -4
-55 -10 -55 -5 0 -10 -13 -10 -30 0 -16 -4 -30 -10 -30 -5 0 -10 -9 -10 -20 0
-11 -4 -20 -10 -20 -5 0 -10 -9 -10 -20 0 -11 -4 -20 -10 -20 -5 0 -10 -7 -10
-15 0 -8 -4 -15 -10 -15 -5 0 -10 -7 -10 -16 0 -8 -7 -22 -15 -30 -8 -9 -15
-23 -15 -33 0 -9 -10 -23 -21 -31 -12 -8 -41 -34 -65 -57 -24 -24 -47 -43 -52
-43 -4 0 -14 -9 -22 -20 -8 -11 -20 -20 -28 -20 -7 0 -20 -7 -28 -15 -9 -8
-24 -15 -35 -15 -10 0 -19 -4 -19 -10 0 -5 -7 -10 -15 -10 -8 0 -15 -4 -15
-10 0 -5 -13 -10 -30 -10 -16 0 -30 -4 -30 -10 0 -5 -9 -10 -20 -10 -11 0 -20
-4 -20 -10 0 -5 -25 -10 -55 -10 -30 0 -55 -4 -55 -10 0 -6 -38 -10 -95 -10
-57 0 -95 4 -95 10 0 6 -22 10 -50 10 -27 0 -50 5 -50 10 0 6 -11 10 -25 10
-14 0 -25 5 -25 10 0 6 -9 10 -20 10 -11 0 -20 5 -20 10 0 6 -7 10 -16 10 -8
0 -22 7 -30 15 -9 8 -24 15 -34 15 -10 0 -22 9 -25 20 -3 11 -13 20 -21 20
-18 0 -194 174 -194 192 0 8 -9 20 -20 28 -11 8 -20 20 -20 27 0 7 -4 13 -10
13 -5 0 -10 9 -10 20 0 11 -4 20 -9 20 -5 0 -12 18 -16 40 -4 22 -11 40 -16
40 -5 0 -9 11 -9 25 0 14 -4 25 -10 25 -5 0 -10 25 -10 55 0 30 -4 55 -10 55
-6 0 -10 28 -10 65 0 37 4 65 10 65 6 0 10 25 10 55 0 30 5 55 10 55 6 0 10
11 10 25 0 14 4 25 9 25 5 0 11 23 15 50 4 28 11 50 16 50 6 0 10 7 10 15 0 8
5 15 10 15 6 0 10 9 10 20 0 11 5 20 10 20 6 0 10 7 10 16 0 9 14 29 30 44 17
15 30 31 30 34 0 18 97 116 114 116 9 0 16 5 16 10 0 6 9 10 20 10 11 0 23 7
26 15 4 8 15 15 25 15 10 0 19 5 19 10 0 6 9 10 20 10 11 0 20 5 20 10 0 6 9
10 20 10 11 0 20 5 20 10 0 6 11 10 25 10 14 0 25 5 25 10 0 6 18 10 40 10 22
0 40 5 40 10 0 6 52 10 135 10 83 0 135 -4 135 -10z m-1130 -1445 l0 -595
-115 0 -115 0 0 595 0 595 115 0 115 0 0 -595z m1700 145 c8 -11 22 -20 32
-20 9 0 20 -9 23 -20 3 -11 11 -20 16 -20 21 0 5 -23 -61 -90 -65 -66 -90 -83
-90 -60 0 5 -16 25 -35 44 -35 35 -44 56 -25 56 6 0 10 7 10 15 0 8 5 15 10
15 6 0 10 7 10 16 0 8 6 21 13 28 6 8 19 23 27 35 18 27 51 27 70 1z m-1299
-60 c10 0 19 -4 19 -10 0 -5 6 -10 13 -10 7 0 35 -20 60 -45 29 -28 57 -45 71
-45 13 0 27 -7 30 -16 3 -9 6 -137 6 -285 l0 -269 -115 0 -115 0 1 353 c0 193
3 346 6 340 2 -7 13 -13 24 -13z m1499 -110 c8 -11 20 -20 28 -20 7 0 29 -15
48 -34 43 -40 36 -34 119 -118 36 -38 70 -68 75 -68 16 0 120 -108 120 -125 0
-8 5 -15 10 -15 6 0 10 -33 10 -79 0 -71 -2 -80 -20 -86 -11 -3 -20 -11 -20
-16 0 -16 -150 -11 -166 6 -9 8 -24 15 -35 15 -12 0 -21 9 -25 27 -4 15 -30
49 -58 75 -28 26 -59 56 -70 67 -24 25 -126 126 -137 137 -55 55 -72 84 -49
84 6 0 10 9 10 20 0 11 4 20 9 20 5 0 13 10 16 21 9 29 86 107 105 108 9 1 22
-8 30 -19z m-1064 -104 c11 -12 14 -58 14 -240 l0 -226 -60 0 -60 0 0 240 0
240 46 0 c26 0 52 -6 60 -14z m-1436 -236 l0 -230 -115 0 -115 0 0 230 0 230
115 0 115 0 0 -230z m1800 0 l0 -230 -105 0 -105 0 0 220 c0 213 1 220 20 220
11 0 20 5 20 10 0 6 35 10 85 10 l85 0 0 -230z"/>
<path d="M3533 3515 c-16 -17 -17 -35 -3 -35 6 0 10 -16 10 -35 l0 -35 344 0
c189 0 351 3 360 6 17 7 22 34 6 34 -5 0 -10 18 -10 40 l0 40 -347 0 c-288 -1
-350 -3 -360 -15z"/>
<path d="M3103 3235 c-19 -21 -17 -111 3 -119 21 -8 1083 -8 1123 0 28 6 31
10 31 46 0 28 -7 46 -25 63 l-24 25 -548 0 c-460 -1 -550 -3 -560 -15z"/>
<path d="M3563 2925 c-13 -13 -23 -31 -23 -40 0 -8 -4 -15 -10 -15 -5 0 -10
-7 -10 -15 0 -8 9 -15 20 -15 11 0 20 -4 20 -10 0 -6 120 -10 340 -10 l340 0
0 30 c0 17 5 30 10 30 17 0 11 20 -15 45 l-24 25 -313 -1 -313 0 -22 -24z"/>
<path d="M3970 2640 c0 -5 -9 -10 -20 -10 -11 0 -20 -7 -20 -15 0 -8 5 -15 10
-15 6 0 10 -16 10 -35 l0 -35 124 0 c140 0 186 6 186 26 0 8 -4 14 -10 14 -5
0 -10 18 -10 40 l0 40 -135 0 c-83 0 -135 -4 -135 -10z"/>
<path d="M4060 2330 c0 -22 -4 -40 -10 -40 -18 0 -10 -29 10 -35 11 -3 20 -11
20 -16 0 -5 30 -9 66 -9 70 0 94 12 94 49 0 12 5 21 10 21 17 0 11 20 -15 45
-21 22 -33 25 -100 25 l-75 0 0 -40z"/>
<path d="M4053 2055 c-16 -17 -17 -35 -3 -35 6 0 10 -16 10 -35 l0 -35 86 0
c66 0 89 4 102 17 12 12 13 18 4 21 -7 2 -12 21 -12 43 l0 39 -87 0 c-63 -1
-92 -5 -100 -15z"/>
<path d="M2993 2693 c-29 -2 -53 -8 -53 -14 0 -5 -11 -9 -25 -9 -14 0 -25 -4
-25 -10 0 -5 -9 -10 -20 -10 -11 0 -20 -4 -20 -10 0 -5 -8 -10 -18 -10 -10 0
-24 -9 -32 -20 -8 -11 -22 -20 -32 -20 -9 0 -20 -9 -23 -20 -3 -11 -10 -20
-15 -20 -15 0 -127 -115 -134 -138 -4 -12 -12 -22 -17 -22 -5 0 -9 -9 -9 -20
0 -11 -4 -20 -10 -20 -5 0 -10 -9 -10 -20 0 -11 -4 -20 -10 -20 -5 0 -10 -11
-10 -25 0 -14 -4 -25 -10 -25 -5 0 -10 -18 -10 -40 0 -22 -4 -40 -10 -40 -6 0
-10 -45 -10 -115 0 -70 4 -115 10 -115 6 0 10 -13 10 -30 0 -16 5 -30 10 -30
6 0 10 -11 10 -25 0 -14 5 -25 10 -25 6 0 10 -13 10 -30 0 -16 5 -30 10 -30 6
0 10 -9 10 -20 0 -11 4 -20 9 -20 5 0 13 -10 17 -22 4 -13 15 -30 25 -39 11
-9 19 -22 19 -28 0 -17 118 -131 135 -131 8 0 15 -4 15 -10 0 -5 9 -10 20 -10
11 0 20 -4 20 -10 0 -5 9 -10 20 -10 11 0 20 -4 20 -10 0 -5 7 -10 15 -10 8 0
15 -4 15 -10 0 -5 14 -10 30 -10 17 0 30 -4 30 -10 0 -5 18 -10 40 -10 22 0
40 -4 40 -10 0 -6 48 -10 125 -10 77 0 125 4 125 10 0 6 11 10 25 10 14 0 25
5 25 10 0 6 9 10 20 10 11 0 20 5 20 10 0 6 9 10 20 10 11 0 20 5 20 10 0 6
13 10 29 10 21 0 32 6 36 20 3 11 13 20 21 20 9 0 22 7 30 15 9 8 23 15 33 15
9 0 23 10 31 21 8 12 25 32 38 45 12 13 22 29 22 36 0 8 9 20 20 28 11 8 20
20 20 27 0 7 5 13 10 13 6 0 10 9 10 20 0 11 5 20 10 20 6 0 10 9 10 20 0 11
4 20 9 20 6 0 13 20 17 45 3 25 10 45 15 45 5 0 9 70 9 155 0 85 -4 155 -9
155 -5 0 -12 29 -16 65 -3 36 -11 65 -16 65 -5 0 -9 9 -9 20 0 11 -4 20 -10
20 -5 0 -10 9 -10 20 0 11 -4 20 -10 20 -5 0 -10 6 -10 13 0 7 -9 19 -20 27
-11 8 -20 20 -20 27 0 17 -54 73 -70 73 -6 0 -25 14 -40 30 -15 17 -35 30 -44
30 -9 0 -16 5 -16 10 0 6 -7 10 -15 10 -8 0 -15 5 -15 10 0 6 -9 10 -20 10
-11 0 -20 5 -20 10 0 6 -13 10 -29 10 -16 0 -31 5 -33 12 -4 12 -261 20 -365
11z m267 -103 c0 -5 16 -10 35 -10 19 0 35 -4 35 -10 0 -5 9 -10 20 -10 11 0
20 -4 20 -10 0 -5 9 -10 19 -10 11 0 26 -7 35 -15 8 -8 21 -15 30 -15 8 0 18
-9 21 -20 3 -11 13 -20 21 -20 14 0 64 -43 64 -55 0 -3 11 -17 25 -31 14 -14
25 -34 25 -44 0 -11 5 -20 10 -20 6 0 10 -9 10 -20 0 -11 5 -20 10 -20 6 0 10
-16 10 -35 0 -19 5 -35 10 -35 6 0 10 -65 10 -175 l0 -175 -29 -6 c-25 -5 -31
-12 -36 -45 -4 -22 -11 -39 -16 -39 -5 0 -9 -8 -9 -18 0 -10 -9 -24 -20 -32
-11 -8 -20 -18 -20 -23 0 -14 -27 -37 -44 -37 -12 0 -16 10 -16 35 0 19 -4 35
-10 35 -6 0 -10 42 -10 105 l0 105 -206 0 c-165 0 -208 -3 -220 -14 -10 -11
-14 -43 -14 -130 0 -71 -4 -116 -10 -116 -6 0 -10 -27 -10 -60 l0 -60 -35 0
c-19 0 -35 5 -35 10 0 6 -11 10 -25 10 -24 0 -25 2 -25 65 0 37 -4 65 -10 65
-6 0 -10 123 -10 350 l0 350 -24 0 c-31 0 -56 10 -56 21 0 20 89 97 119 104
17 3 31 11 31 16 0 5 9 9 20 9 11 0 20 5 20 10 0 6 18 10 40 10 22 0 40 5 40
10 0 6 42 10 105 10 63 0 105 -4 105 -10z m-510 -565 c0 -151 -3 -275 -6 -275
-10 0 -34 28 -34 40 0 7 -13 25 -30 40 -16 15 -30 33 -30 39 0 6 -4 11 -10 11
-5 0 -10 13 -10 29 0 16 -5 31 -11 33 -7 2 -11 47 -11 133 0 86 4 131 11 133
6 2 11 12 11 23 0 10 5 19 10 19 6 0 10 5 10 10 0 23 27 39 63 40 l37 0 0
-275z m600 -335 l0 -130 -25 -6 c-14 -3 -25 -10 -25 -15 0 -5 -40 -9 -90 -9
l-90 0 0 145 0 145 115 0 115 0 0 -130z"/>
<path d="M1076 3774 c-3 -9 -6 -91 -6 -184 0 -93 3 -175 6 -184 5 -14 30 -16
170 -16 95 0 164 4 164 9 0 5 9 13 20 16 19 6 20 15 20 166 0 99 -4 159 -10
159 -5 0 -10 5 -10 11 0 33 -28 39 -188 39 -137 0 -161 -2 -166 -16z m254
-184 l0 -80 -80 0 -80 0 0 80 0 80 80 0 80 0 0 -80z"/>
<path d="M1559 3733 c-11 -13 -11 -17 -1 -20 7 -3 12 -21 12 -44 l0 -39 66 0
c43 0 70 5 80 14 16 17 19 36 4 36 -5 0 -10 16 -10 35 l0 35 -69 0 c-52 0 -72
-4 -82 -17z"/>
<path d="M1813 3743 c-15 -6 -17 -33 -3 -33 6 0 10 -18 10 -40 l0 -40 301 0
c247 0 303 3 315 14 16 17 19 36 4 36 -5 0 -10 16 -10 35 l0 35 -302 -1 c-167
0 -309 -3 -315 -6z"/>
<path d="M1563 3535 c-16 -17 -17 -35 -3 -35 6 0 10 -18 10 -40 l0 -40 423 0
c335 1 426 3 440 14 19 14 23 36 7 36 -5 0 -10 18 -10 40 l0 40 -427 0 c-357
-1 -430 -3 -440 -15z"/>
<path d="M1075 3188 c-3 -13 -4 -102 -3 -198 l3 -175 166 -3 c222 -3 209 -15
209 192 0 153 -1 157 -25 181 -24 24 -28 25 -184 25 -158 0 -161 0 -166 -22z
m255 -178 l0 -80 -80 0 -80 0 0 80 0 80 80 0 80 0 0 -80z"/>
<path d="M1563 3155 c-16 -17 -17 -35 -3 -35 6 0 10 -16 10 -35 l0 -35 66 0
c79 0 94 11 94 74 l0 46 -77 0 c-55 -1 -82 -5 -90 -15z"/>
<path d="M1813 3155 c-16 -17 -17 -35 -3 -35 6 0 10 -16 10 -35 l0 -35 301 0
c247 0 303 3 315 14 16 17 19 36 4 36 -5 0 -10 16 -10 35 l0 35 -302 0 c-249
-1 -305 -3 -315 -15z"/>
<path d="M1563 2955 c-16 -17 -17 -35 -3 -35 6 0 10 -18 10 -40 l0 -40 426 0
c355 0 428 2 440 14 16 17 19 36 4 36 -5 0 -10 18 -10 40 l0 40 -427 0 c-357
-1 -430 -3 -440 -15z"/>
</g>
</svg>
