<svg xmlns="http://www.w3.org/2000/svg" width="192" height="192" fill="currentColor" viewBox="0 0 256 256">
    <rect width="256" height="256" fill="none"></rect>
    <path d="M127.6299 20.4159A6.2618 6.074 0 00146.4154 20.4159 6.2618 6.074 0 00127.6299 20.4159L90.0589 20.4159C96.3207 50.7859 83.797 56.8598 58.7497 32.5639L46.226 44.7119C71.2734 69.0078 65.0115 81.1558 27.4405 69.0078L21.1786 87.2298C58.7497 99.3777 58.7497 117.5997 14.9168 117.5997L14.9168 135.8217C58.7497 135.8217 65.0115 154.0436 21.1786 166.1916L27.4405 184.4135C71.2734 172.2656 77.5352 184.4135 46.226 208.7095L58.7497 220.8574C90.0589 196.5615 96.3207 208.7095 90.0589 239.0794L127.6299 239.0794A6.2618 6.074 0 00146.4154 239.0794 6.2618 6.074 0 00127.6299 239.0794M183.9865 38.6379A6.2618 6.074 0 00202.772 32.5639 6.2618 6.074 0 00183.9865 38.6379L165.201 50.7859 115.1062 50.7859 165.201 50.7859 183.9865 62.9338 209.0338 62.9338A6.2618 6.074 0 00227.8194 62.9338 6.2618 6.074 0 00209.0338 62.9338M152.6773 81.1558A6.2618 6.074 0 00171.4628 81.1558 6.2618 6.074 0 00152.6773 81.1558L121.3681 81.1558A6.2618 6.074 0 00121.3681 178.3395L146.4154 178.3395 177.7246 208.7095A6.2618 6.074 0 00196.5102 214.7835 6.2618 6.074 0 00177.7246 208.7095L165.201 196.5615 152.6773 208.7095 121.3681 208.7095M121.3681 111.5257A6.2618 6.074 0 00121.3681 147.9696 6.2618 6.074 0 00121.3681 111.5257M158.9391 141.8956 183.9865 141.8956 196.5102 117.5997A6.2618 6.074 0 00209.0338 99.3777 6.2618 6.074 0 00196.5102 117.5997M183.9865 141.8956 196.5102 166.1916 221.5575 166.1916A6.2618 6.074 0 00239.12 164.5896 6.2618 6.074 0 00221.5575 166.1916" fill="none" stroke="currentColor" stroke-linecap="round" stroke-linejoin="round" stroke-width="8"></path>
</svg>